<?xml version="1.0" encoding="UTF-8" standalone="no"?>
<!-- Created with Inkscape (http://www.inkscape.org/) -->

<svg
   xmlns:dc="http://purl.org/dc/elements/1.1/"
   xmlns:cc="http://creativecommons.org/ns#"
   xmlns:rdf="http://www.w3.org/1999/02/22-rdf-syntax-ns#"
   xmlns:svg="http://www.w3.org/2000/svg"
   xmlns="http://www.w3.org/2000/svg"
   xmlns:sodipodi="http://sodipodi.sourceforge.net/DTD/sodipodi-0.dtd"
   xmlns:inkscape="http://www.inkscape.org/namespaces/inkscape"
   width="210mm"
   height="297mm"
   id="svg2"
   version="1.1"
   inkscape:version="0.47 r22583"
   sodipodi:docname="Nouveau document 1">
  <defs
     id="defs4">
    <inkscape:perspective
       sodipodi:type="inkscape:persp3d"
       inkscape:vp_x="0 : 526.18109 : 1"
       inkscape:vp_y="0 : 1000 : 0"
       inkscape:vp_z="744.09448 : 526.18109 : 1"
       inkscape:persp3d-origin="372.04724 : 350.78739 : 1"
       id="perspective10" />
    <inkscape:perspective
       id="perspective2884"
       inkscape:persp3d-origin="0.5 : 0.33333333 : 1"
       inkscape:vp_z="1 : 0.5 : 1"
       inkscape:vp_y="0 : 1000 : 0"
       inkscape:vp_x="0 : 0.5 : 1"
       sodipodi:type="inkscape:persp3d" />
  </defs>
  <sodipodi:namedview
     id="base"
     pagecolor="#ffffff"
     bordercolor="#666666"
     borderopacity="1.0"
     inkscape:pageopacity="0.0"
     inkscape:pageshadow="2"
     inkscape:zoom="0.35"
     inkscape:cx="375"
     inkscape:cy="508.57143"
     inkscape:document-units="px"
     inkscape:current-layer="g2892"
     showgrid="false"
     inkscape:window-width="1680"
     inkscape:window-height="999"
     inkscape:window-x="0"
     inkscape:window-y="1"
     inkscape:window-maximized="1" />
  <metadata
     id="metadata7">
    <rdf:RDF>
      <cc:Work
         rdf:about="">
        <dc:format>image/svg+xml</dc:format>
        <dc:type
           rdf:resource="http://purl.org/dc/dcmitype/StillImage" />
        <dc:title></dc:title>
      </cc:Work>
    </rdf:RDF>
  </metadata>
  <g
     inkscape:label="Calque 1"
     inkscape:groupmode="layer"
     id="layer1">
    <g
       id="g2892"
       transform="matrix(6.1428571,0,0,5.8656295,-1808.1632,-2241.5804)">
      <path
         style="fill:#fdfdfb"
         d="m 307.14285,469.50504 0,-50.5 50,0 50,0 0,50.5 0,50.5 -50,0 -50,0 0,-50.5 z"
         id="path2908" />
      <path
         style="fill:#d2dfa3"
         d="m 397.23737,509.44333 c -2.97302,-2.35933 -7.49184,-5.42522 -10.04184,-6.8131 l -4.63634,-2.52342 -4.51687,-1.01225 -4.51687,-1.01225 -7.9413,1.94956 -7.9413,1.94956 -4.5399,0.0118 -4.5399,0.0118 -5.9601,-1.552 -5.9601,-1.552 -4.38049,-2.56662 -4.38048,-2.56663 -4.43771,-4.63137 -4.4377,-4.63138 -3.18181,-6.5 -3.18181,-6.5 0,-11 0,-11 3.3428,-6.40531 3.34279,-6.40531 4.9119,-4.78434 4.9119,-4.78434 6.55998,-3.22947 6.55998,-3.22946 7.7703,-0.44982 7.7703,-0.44981 5.91503,1.70024 5.91502,1.70024 4.67345,2.97381 4.67346,2.97382 4.16614,4.51973 4.16614,4.51973 2.61291,5.67514 2.61291,5.67515 0.41402,9.18704 0.41402,9.18704 -2.11652,6.9682 -2.11653,6.96819 0,3.05726 0,3.05725 2.01144,5.37605 2.01144,5.37606 5.02391,7.29277 c 2.76315,4.01102 4.8955,7.39747 4.73856,7.52544 -0.15694,0.12797 -2.71782,-1.69768 -5.69083,-4.05701 z m -37.3124,-29.98897 3.71788,-1.55068 3.29616,-3.19023 c 1.81288,-1.75462 4.40038,-5.07444 5.75,-7.37738 l 2.45384,-4.18717 -0.022,-3.82193 -0.022,-3.82193 -1.82174,-4 -1.82174,-4 -4.08552,-3.68345 -4.08552,-3.68346 -3.82078,-1.06097 c -4.99604,-1.38732 -8.66267,-1.34713 -13.70476,0.1502 l -4.11602,1.22233 -4.57531,4.55536 -4.5753,4.55536 -1.1747,4.66514 c -1.43862,5.71327 -1.46361,8.19904 -0.13068,12.99844 l 1.03285,3.71894 2.46321,2.92737 2.46322,2.92736 4.24835,2.1029 4.24836,2.1029 5.28212,7.9e-4 5.28212,7.9e-4 3.71788,-1.55068 z"
         id="path2906" />
      <path
         style="fill:#c5d96f"
         d="m 400.03535,511.35765 c -0.76588,-0.93265 -4.3175,-3.58972 -7.8925,-5.90459 l -6.5,-4.20887 -4.78495,-1.61957 -4.78494,-1.61958 -2.89996,0 c -1.59497,0 -4.16675,0.49139 -5.71505,1.09197 -1.54831,0.60059 -5.43294,1.4707 -8.63252,1.93358 l -5.81742,0.8416 -6.18258,-0.96116 -6.18258,-0.96117 -6.18482,-3.00298 -6.18482,-3.00299 -4.7178,-5.21942 -4.7178,-5.21943 -3.09738,-6.5 -3.09738,-6.5 0.0128,-10 0.0128,-10 3.20415,-6.57366 3.20415,-6.57366 5.36576,-5.0747 5.36575,-5.07471 5.03812,-2.55301 5.03812,-2.55301 6.63907,-1.22329 6.63907,-1.2233 6.17696,1.14873 6.17696,1.14872 5.56318,2.71757 5.56317,2.71757 5.03861,5.05837 5.0386,5.05838 2.22651,4.77126 c 1.22458,2.62419 2.72745,7.10705 3.33971,9.96191 l 1.11319,5.19066 -0.56619,7.03808 -0.5662,7.03809 -1.68011,4.8204 -1.6801,4.82041 0.43998,5.30561 0.43998,5.30562 2.6869,5.49182 c 1.47779,3.0205 4.30206,7.60713 6.27614,10.19251 1.97409,2.58538 3.38421,4.90573 3.13361,5.15633 -0.25059,0.2506 -1.08225,-0.30744 -1.84813,-1.24009 z m -38.3925,-31.73003 5,-2.35789 2.08823,-2.38235 c 1.14853,-1.31029 3.1458,-4.14761 4.43838,-6.30517 l 2.35014,-3.92283 -0.072,-4.77099 -0.072,-4.771 -2.2062,-4.55739 -2.2062,-4.55738 -3.46647,-2.85736 -3.46647,-2.85736 -3.80975,-1.14143 -3.80976,-1.14143 -4.38398,0.022 -4.38398,0.022 -4.02219,1.82716 -4.02219,1.82715 -3.14153,3.14153 -3.14153,3.14152 -1.71225,4.48349 -1.71226,4.48348 0.45456,5.4814 0.45456,5.4814 2.92141,4.71684 2.92142,4.71683 4.40728,2.32764 4.40729,2.32764 5.59271,-0.01 5.59272,-0.01 5,-2.35789 z m 2,-56.15058 -4,-1.3183 -7,0.0704 -7,0.0704 8.76618,0.70221 c 4.8214,0.38622 9.0589,0.99493 9.41666,1.3527 0.35777,0.35777 1.36299,0.60331 2.23383,0.54564 l 1.58333,-0.10486 -4,-1.31829 z m -18.77083,-0.0762 -0.60417,-0.60416 -1.3125,0.52522 -1.3125,0.52522 1.91667,0.0789 1.91666,0.079 -0.60416,-0.60417 z"
         id="path2904" />
      <path
         style="fill:#b1d045"
         d="m 396.64285,508.44203 c -2.2,-1.85717 -6.74688,-4.77426 -10.10418,-6.48243 l -6.10417,-3.10576 -4.09489,-0.54923 -4.09488,-0.54924 -6.46899,1.75107 -6.46899,1.75107 -8.95878,-0.42832 -8.95878,-0.42833 -6.55799,-3.22848 -6.55799,-3.22849 -4.51991,-5.02723 -4.51992,-5.02723 -2.57121,-5.25537 -2.57121,-5.25537 -1.16441,-6.2613 -1.16441,-6.2613 1.10037,-6.42391 1.10037,-6.42392 2.28486,-4.75161 2.28486,-4.75161 5.75961,-5.78449 5.75961,-5.78448 5.46267,-2.50089 5.46266,-2.50089 6.08285,-1.07148 6.08285,-1.07147 6.2152,1.09479 6.2152,1.09478 5.30259,2.59432 5.30259,2.59432 5.02293,4.89248 5.02292,4.89248 3.0331,6.48157 3.03309,6.48158 0.52834,7.29369 0.52834,7.29369 -1.72323,6.5 -1.72322,6.5 -0.46319,6.22606 -0.46319,6.22606 2.59654,5.6716 c 1.4281,3.11938 4.19694,7.89923 6.15298,10.62189 1.95604,2.72267 3.41301,5.08929 3.23772,5.25917 -0.17529,0.16988 -2.11871,-1.21063 -4.31871,-3.06779 z m -35.64494,-11.29754 2.35506,-0.66119 -9.85506,-0.0746 -9.85506,-0.0746 -5.78438,-2.24925 -5.78439,-2.24925 -4.46561,-3.40868 -4.46562,-3.40868 0,0.79723 c 0,1.16117 6.08386,6.73408 9,8.24415 1.375,0.71202 4.3,1.86091 6.5,2.5531 l 4,1.25852 8,-0.0328 c 4.4,-0.018 9.05978,-0.33032 10.35506,-0.69397 z m 0.92513,-16.7172 5.17287,-2.57776 2.68163,-3.17224 c 1.4749,-1.74474 3.56214,-5.15397 4.63831,-7.57608 l 1.95668,-4.40383 -0.59615,-4.34937 -0.59615,-4.34937 -1.97484,-3.87101 -1.97484,-3.87101 -3.29385,-2.77733 c -1.81162,-1.52753 -4.7419,-3.38413 -6.51173,-4.12579 l -3.21788,-1.34846 -5.78212,0.009 -5.78212,0.009 -5.23712,3.00349 -5.23713,3.00349 -3.00349,5.23713 -3.00349,5.23712 -0.009,5.93428 -0.009,5.93427 2.11172,4.36224 2.11173,4.36224 3.37715,2.6947 c 1.85744,1.48208 4.84466,3.22691 6.63828,3.8774 l 3.26112,1.18271 4.55366,0.0761 4.55365,0.0761 5.17288,-2.57775 z m -22.78019,-54.60492 5.5,-2.18166 8.5,0 8.5,0 5.5,2.18166 c 6.2952,2.49709 6.31513,2.50158 5.54001,1.24741 -0.31791,-0.5144 -3.1563,-1.89992 -6.30753,-3.07895 l -5.72952,-2.14368 -7.50296,0 -7.50296,0 -5.72952,2.14368 c -3.15123,1.17903 -5.98962,2.56455 -6.30753,3.07895 -0.77512,1.25417 -0.75519,1.24968 5.54001,-1.24741 z"
         id="path2902" />
      <path
         style="fill:#a7c63a"
         d="m 396.64285,508.44203 c -2.2,-1.85717 -6.74688,-4.77426 -10.10418,-6.48243 l -6.10417,-3.10576 -4.09489,-0.54923 -4.09488,-0.54924 -6.46899,1.75107 -6.46899,1.75107 -8.95878,-0.42832 -8.95878,-0.42833 -6.55799,-3.22848 -6.55799,-3.22849 -4.51991,-5.02723 -4.51992,-5.02723 -2.57121,-5.25537 -2.57121,-5.25537 -1.16441,-6.2613 -1.16441,-6.2613 1.10037,-6.42391 1.10037,-6.42392 2.28486,-4.75161 2.28486,-4.75161 5.75961,-5.78449 5.75961,-5.78448 5.46267,-2.50089 5.46266,-2.50089 6.08285,-1.07148 6.08285,-1.07147 6.2152,1.09479 6.2152,1.09478 5.30259,2.59432 5.30259,2.59432 5.02293,4.89248 5.02292,4.89248 3.0331,6.48157 3.03309,6.48158 0.52834,7.29369 0.52834,7.29369 -1.72323,6.5 -1.72322,6.5 -0.46319,6.22606 -0.46319,6.22606 2.59654,5.6716 c 1.4281,3.11938 4.19694,7.89923 6.15298,10.62189 1.95604,2.72267 3.41301,5.08929 3.23772,5.25917 -0.17529,0.16988 -2.11871,-1.21063 -4.31871,-3.06779 z m -32.93834,-11.53529 7.93834,-2.0983 5.77508,0.58559 5.77508,0.58559 3.06785,1.58644 c 1.68732,0.87255 3.23699,1.41732 3.44371,1.21059 0.20672,-0.20672 -0.72441,-3.0524 -2.0692,-6.32373 l -2.44505,-5.94788 0.003,-3.5 0.003,-3.5 1.86358,-7 c 1.02497,-3.85 1.70537,-7.17026 1.512,-7.37836 -0.30557,-0.32884 -6.82625,1.05057 -11.48439,2.42945 l -1.55619,0.46066 0.0239,-6.75587 0.0238,-6.75588 -2.17383,-4.12421 -2.17383,-4.12421 -3.29385,-2.77733 c -1.81162,-1.52753 -4.7419,-3.38413 -6.51173,-4.12579 l -3.21788,-1.34846 -5.78212,0.009 -5.78212,0.009 -5.23712,3.00349 -5.23713,3.00349 -3.00349,5.23713 -3.00349,5.23712 -0.009,5.78212 -0.009,5.78212 1.3749,3.29061 c 0.7562,1.80983 2.8937,5.02106 4.75,7.13606 l 3.3751,3.84545 -2.02582,-1.08339 -2.02583,-1.08339 -1.47417,0.75328 c -0.8108,0.4143 -4.06168,1.34801 -7.22418,2.07492 l -5.75,1.32165 0,1.13208 0,1.13207 4.25,4.09947 c 4.92673,4.75223 8.64399,6.79148 15.98015,8.76655 l 5.26985,1.41878 4.56166,0.0658 4.56167,0.0658 7.93833,-2.0983 z m -27.94616,-65.39055 1.42863,-1.95376 -0.46687,-1.21666 -0.46688,-1.21666 4.99708,-1.65976 4.99708,-1.65976 7.27834,0.0285 7.27833,0.0285 5.91003,1.99521 c 7.19542,2.42916 8.4418,1.92115 2.13318,-0.86945 l -4.60466,-2.03686 -5.75802,-1.06443 -5.75801,-1.06442 -6.04186,1.17662 -6.04187,1.17662 -5,2.48735 c -2.75,1.36804 -6.01732,3.43665 -7.2607,4.5969 l -2.26071,2.10956 1.08387,0.66986 c 0.59613,0.36843 2.44299,0.61507 4.10414,0.5481 l 3.02027,-0.12178 1.42863,-1.95377 z"
         id="path2900" />
      <path
         style="fill:#9fb553"
         d="m 396.64285,508.44203 c -2.2,-1.85717 -6.74688,-4.77426 -10.10418,-6.48243 l -6.10417,-3.10576 -4.09489,-0.54923 -4.09488,-0.54924 -6.46899,1.75107 -6.46899,1.75107 -8.95878,-0.42832 -8.95878,-0.42833 -6.55799,-3.22848 -6.55799,-3.22849 -4.51991,-5.02723 -4.51992,-5.02723 -2.57121,-5.25537 -2.57121,-5.25537 -1.16441,-6.2613 -1.16441,-6.2613 1.10037,-6.42391 1.10037,-6.42392 2.28486,-4.75161 2.28486,-4.75161 5.75961,-5.78449 5.75961,-5.78448 5.5102,-2.52266 5.5102,-2.52265 3.78532,-0.45835 3.78531,-0.45834 -6,1.83087 c -8.16021,2.49005 -11.44162,4.34987 -16.71161,9.47171 l -4.49094,4.3647 -2.78254,4.74803 -2.78253,4.74804 0.88381,0.79733 c 1.45167,1.30962 7.48007,3.07029 10.51246,3.07029 l 2.8302,0 5.27058,-5.41391 5.27057,-5.4139 5.84467,-1.68458 5.84467,-1.68457 2.32879,0.44518 2.32879,0.44517 0.56288,-2.09669 c 0.30959,-1.15319 0.56904,-4.02959 0.57655,-6.39201 l 0.0136,-4.29532 3.75,0.67205 c 2.0625,0.36962 5.28159,1.29592 7.15354,2.05844 l 3.40354,1.38639 0.501,-0.50099 0.501,-0.501 -4.81939,-2.13185 -4.81939,-2.13184 -7.58515,-1.35961 -7.58515,-1.35962 6.83567,0.51596 6.83566,0.51595 4.88354,1.8556 4.88354,1.8556 4.90871,3.60333 4.90872,3.60333 2.68406,3.51898 c 1.47623,1.93544 3.81621,5.99193 5.19995,9.01441 l 2.51589,5.49543 0.52428,7.24003 0.52428,7.24004 -1.72323,6.5 -1.72322,6.5 -0.46319,6.22606 -0.46319,6.22606 2.59654,5.6716 c 1.4281,3.11938 4.19694,7.89923 6.15298,10.62189 1.95604,2.72267 3.41301,5.08929 3.23772,5.25917 -0.17529,0.16988 -2.11871,-1.21063 -4.31871,-3.06779 z m -5.5184,-11.47345 -3.0472,-6.03645 -0.91533,-4.82652 -0.91533,-4.82651 1.93633,-7.88703 c 1.06497,-4.33787 1.94163,-8.67453 1.94812,-9.63703 l 0.0118,-1.75 -1.85078,0 c -1.01792,0 -3.15542,0.4128 -4.75,0.91732 -1.59457,0.50453 -4.02422,1.15703 -5.39922,1.44999 l -2.5,0.53266 -0.0845,-5.19999 -0.0845,-5.19998 -2.12166,-4.12421 -2.12166,-4.12421 -3.29385,-2.77733 c -1.81162,-1.52753 -4.7419,-3.38413 -6.51173,-4.12579 l -3.21788,-1.34846 -5.78212,0.009 -5.78212,0.009 -5.23712,3.00349 -5.23713,3.00349 -3.00349,5.23713 -3.00349,5.23712 -0.009,6.10106 -0.009,6.10106 2.44369,4.59595 2.44369,4.59594 -1.19369,-0.45002 -1.19369,-0.45003 -6.44092,2.32577 -6.44092,2.32578 -0.38027,1.14081 -0.38027,1.14082 5.82119,5.91202 5.82119,5.91202 6,2.28807 6,2.28807 9,0.21302 9,0.21301 1.20619,-0.96276 1.2062,-0.96277 1.0438,0.64511 1.04381,0.6451 0,-1.166 0,-1.16601 1.37815,0.52885 1.37814,0.52884 0.87186,-0.81656 0.87185,-0.81656 5.94176,0.83447 5.94177,0.83447 5.55823,2.964 c 3.05703,1.6302 5.90222,3.0073 6.32263,3.06023 l 0.7644,0.0962 -3.04719,-6.03646 z"
         id="path2898" />
      <path
         style="fill:#91ad2e"
         d="m 395.64285,507.44307 c -1.65,-1.36953 -6.09796,-4.05335 -9.88436,-5.96404 l -6.88435,-3.47399 -4.46174,0 -4.46173,0 -5.56255,1.61707 -5.56254,1.61708 -8.09137,-0.47126 -8.09136,-0.47126 -4.29149,-1.771 c -5.59493,-2.30889 -4.92133,-2.84038 1.24708,-0.98396 l 4.86227,1.46333 7.65957,0 7.65957,0 5.40548,-1.60526 5.40548,-1.60525 5.15204,0.42724 5.15204,0.42725 5.8616,2.92801 c 3.22388,1.61041 6.26731,3.09889 6.76318,3.30774 l 0.90157,0.37973 -0.7859,-1.37973 -0.7859,-1.37973 0.95188,1 c 0.52353,0.55 2.18744,2.6875 3.69759,4.75 l 2.74572,3.75 -0.80089,-0.036 c -0.44049,-0.0198 -2.15089,-1.15649 -3.80089,-2.52601 z m -6.39719,-14.11172 c -0.67213,-1.47518 -1.62189,-4.79042 -2.11056,-7.3672 l -0.88851,-4.68505 1.93632,-7.88703 c 1.06498,-4.33787 1.94164,-8.73341 1.94813,-9.76787 l 0.0118,-1.88085 -3.25,0.60269 c -1.7875,0.33148 -4.9375,1.01797 -7,1.52553 l -3.75,0.92285 0,-3.76896 0,-3.76897 -1.54253,-4.372 -1.54253,-4.372 -3.20747,-3.34135 -3.20747,-3.34136 -3.5,-1.77717 c -1.925,-0.97744 -5.21163,-2.08792 -7.30362,-2.46774 l -3.80361,-0.69057 -5.19639,1.52102 -5.19638,1.52101 -3.66021,3.03315 -3.66021,3.03314 -2.25645,4.66122 -2.25646,4.66122 0,5.69476 0,5.69476 2.55472,4.57088 2.55471,4.57089 -1.13805,-0.42867 -1.13805,-0.42868 -6.5,2.3714 -6.5,2.37141 0.13889,1.63161 c 0.22413,2.63304 -0.45562,1.92766 -3.00512,-3.11838 l -2.39993,-4.75 -1.22316,-5.92026 -1.22317,-5.92027 0.6519,-4.91424 c 0.35854,-2.70283 1.54727,-7.30736 2.64163,-10.23227 l 1.98973,-5.31804 3.35729,-4.39691 3.35729,-4.39691 3.85733,-2.87366 3.85732,-2.87366 -5.07836,4.95216 -5.07836,4.95215 -2.80545,4.78715 -2.80545,4.78714 0.88381,0.79733 c 1.45167,1.30962 7.48007,3.07029 10.51246,3.07029 l 2.8302,0 5.27058,-5.41391 5.27057,-5.4139 5.84467,-1.68458 5.84467,-1.68457 2.32879,0.44518 2.32879,0.44517 0.56288,-2.09669 c 0.30959,-1.15319 0.56904,-4.04496 0.57655,-6.42616 l 0.0136,-4.32945 3.25,0.66221 c 1.7875,0.36421 6.0625,1.95132 9.5,3.52691 l 6.25,2.86471 0,-0.82487 c 0,-0.45367 -2.44831,-2.10672 -5.44069,-3.67343 -2.99238,-1.56671 -5.27276,-3.0165 -5.06751,-3.22175 0.20525,-0.20525 2.68932,0.88742 5.52016,2.42816 l 5.14699,2.80134 5.33574,5.76323 5.33574,5.76324 2.05172,5.48374 2.05173,5.48373 0.65401,6.38352 0.65401,6.38353 -2.71021,10.61941 -2.71022,10.6194 1.54236,5.26149 c 1.71636,5.85507 1.60133,7.24804 -0.26102,3.16065 z m -54.36948,-68.4504 1.23334,-1.24258 0.55979,0.5598 0.5598,0.55979 -1.79313,0.68279 -1.79313,0.68278 1.23333,-1.24258 z m 4.26667,-1.87591 c 0.825,-0.53316 2.175,-0.94464 3,-0.9144 l 1.5,0.055 -2,0.85943 c -1.1,0.47269 -2.45,0.88417 -3,0.9144 l -1,0.055 1.5,-0.96937 z m 5.75,-1.66228 1.25,-0.50439 1.25,0.50439 1.25,0.50439 -2.5,0 -2.5,0 1.25,-0.50439 z m 14,0 1.25,-0.50439 1.25,0.50439 1.25,0.50439 -2.5,0 -2.5,0 1.25,-0.50439 z"
         id="path2896" />
      <path
         style="fill:#819d24"
         d="m 392.14285,504.94024 -5.5,-3.86023 -4.42814,-1.53749 -4.42814,-1.53748 -4.07186,0.0108 -4.07186,0.0108 -4.90893,1.48917 -4.90893,1.48918 -6.59107,-0.0997 c -3.62509,-0.0548 -7.71607,-0.45123 -9.09107,-0.88091 l -2.5,-0.78123 7.00979,0.50581 7.00979,0.50581 8.57832,-2.14907 8.57832,-2.14906 5.0787,1.08919 5.0787,1.08919 5.70434,3.43497 c 3.13739,1.88924 6.03008,3.43498 6.42821,3.43498 0.39812,0 1.53834,0.9 2.53383,2 l 1.80998,2 -0.90499,-0.10228 c -0.49775,-0.0563 -3.37999,-1.83939 -6.40499,-3.96252 z m -3.5173,-26.4352 c 0.31011,-1.65 1.07479,-6.28108 1.69928,-10.29129 l 1.13544,-7.29129 -1.1305,-1.1305 -1.13051,-1.13051 -6.01311,1.6718 c -3.3072,0.91948 -6.18692,1.67179 -6.39937,1.67179 -0.21245,0 -0.67127,-2.1375 -1.01961,-4.75 l -0.63334,-4.75 -2.03064,-3.5 -2.03065,-3.5 1.92453,2.22417 1.92454,2.22417 1.23194,-2.97417 1.23194,-2.97417 1.04535,0 1.04534,0 -0.63148,-0.63148 -0.63148,-0.63149 1.16672,-2.11851 c 0.6417,-1.16519 1.2671,-2.72225 1.38978,-3.46015 0.12268,-0.7379 0.48813,-1.6067 0.8121,-1.93067 l 0.58903,-0.58904 -2.75764,-3.06933 -2.75764,-3.06933 4.17867,3.88951 4.17867,3.88951 2.9822,5.61049 2.9822,5.61049 1.14456,6.34812 1.14457,6.34811 -1.06153,6.65189 c -0.58384,3.65853 -1.7549,8.45188 -2.60236,10.65188 l -1.54084,4 0.56384,-3 z m -73.41085,-4.03751 c -1.13952,-3.04564 -2.06496,-6.53314 -2.05654,-7.75 l 0.0153,-2.21249 0.73468,1 c 0.75143,1.02279 2.38457,1.56026 5.44037,1.79045 l 1.72392,0.12986 -1.38104,1.53984 -1.38104,1.53985 0.51041,2.63278 0.51041,2.63279 -1.0505,0.64924 -1.05049,0.64924 0.56331,1.46798 0.56332,1.46797 -0.53514,0 c -0.29433,0 -1.46747,-2.49188 -2.60699,-5.53751 z m 14.0071,-10.04582 0.0789,-1.91667 0.52522,1.3125 0.52522,1.3125 -0.60416,0.60417 -0.60417,0.60416 0.0789,-1.91666 z m -16.82677,-3.91667 0.0202,-4 0.4349,2.26166 c 0.23919,1.24391 0.23011,3.04391 -0.0202,4 l -0.45508,1.73834 0.0202,-4 z m 16.82677,-4.08333 0.0789,-1.91667 0.52522,1.3125 0.52522,1.3125 -0.60416,0.60417 -0.60417,0.60416 0.0789,-1.91666 z m 6.42105,-12.41667 c 0.99549,-1.1 2.03497,-2 2.30998,-2 0.27499,0 -0.31449,0.9 -1.30998,2 -0.99549,1.1 -2.03497,2 -2.30998,2 -0.27499,0 0.31449,-0.9 1.30998,-2 z"
         id="path2894" />
    </g>
  </g>
</svg>
